<svg width="120" height="120" viewBox="0 0 120 120" fill="none" xmlns="http://www.w3.org/2000/svg">
<rect width="120" height="120" rx="60" fill="black" fill-opacity="0.2"/>
<g clip-path="url(#clip0_1042_41)">
<path d="M76.875 36.3398C84.2578 41.6133 89.0625 50.2383 89.0625 60C89.0625 76.0312 76.0781 89.0273 60.0586 89.0625C44.0625 89.0977 30.961 76.0547 30.9375 60.0469C30.9258 50.2852 35.7305 41.6367 43.1016 36.3516C44.4727 35.3789 46.3828 35.7891 47.2031 37.2539L49.0547 40.5469C49.7461 41.7773 49.418 43.3359 48.2813 44.1797C43.418 47.7891 40.3125 53.5078 40.3125 59.9883C40.3008 70.8047 49.043 79.6875 60 79.6875C70.7344 79.6875 79.7578 70.9922 79.6875 59.8711C79.6524 53.8008 76.793 47.9414 71.7071 44.168C70.5703 43.3242 70.2539 41.7656 70.9453 40.5469L72.7969 37.2539C73.6172 35.8008 75.5156 35.3672 76.875 36.3398ZM64.6875 60.9375V32.8125C64.6875 31.2539 63.4336 30 61.875 30H58.125C56.5664 30 55.3125 31.2539 55.3125 32.8125V60.9375C55.3125 62.4961 56.5664 63.75 58.125 63.75H61.875C63.4336 63.75 64.6875 62.4961 64.6875 60.9375Z" fill="white"/>
</g>
<defs>
<clipPath id="clip0_1042_41">
<rect width="60" height="60" fill="white" transform="translate(30 30)"/>
</clipPath>
</defs>
</svg>
