<svg width="236" height="61" viewBox="0 0 236 61" fill="none" xmlns="http://www.w3.org/2000/svg">
<path d="M28 6C14.4703 6 3.5 16.9703 3.5 30.5C3.5 44.0297 14.4703 55 28 55C41.5297 55 52.5 44.0297 52.5 30.5C52.5 16.9703 41.5297 6 28 6ZM36.5367 40.3492L35.8094 41.0711C35.2133 41.6672 34.2398 41.6672 33.6383 41.0711L26.1297 33.557C25.4734 33.382 24.9922 32.7914 24.9922 32.0859V16.7734C24.9922 15.9258 25.6758 15.2422 26.5234 15.2422H27.5461C28.3938 15.2422 29.0773 15.9258 29.0773 16.7734V30.7297L36.5312 38.1836C37.1328 38.7852 37.1328 39.7531 36.5367 40.3492Z" fill="#278DFF"/>
<path d="M124.7 6.65L129.3 11.1C119.65 13.55 106.3 15.05 94.85 15.75C94.7 14.45 93.95 12.2 93.4 11.05C104.6 10.25 117.25 8.7 124.7 6.65ZM92.35 10.35L99.75 12.4C99.7 12.95 99.35 13.2 98.4 13.35V26.05C98.4 33.65 97.65 45.5 92.2 53.3C91.35 52 88.9 49.9 87.4 49.2C91.95 42.35 92.35 33 92.35 25.95V10.35ZM102.5 46.45H127.55V51.5H102.5V46.45ZM99.3 35.4H130.9V53.45H124.85V40.45H105.05V53.45H99.3V35.4ZM95.8 17.15H130.4V31.7H95.8V26.65H124.45V22.2H95.8V17.15ZM161.15 17.4H180.8V23.15H161.15V17.4ZM177.7 17.4H183.6C183.6 17.4 183.55 19.4 183.55 20.1C183 40.4 182.5 47.75 180.8 50.1C179.6 51.8 178.45 52.35 176.65 52.65C175.05 52.95 172.5 52.95 169.95 52.85C169.8 51.15 169.15 48.6 168.1 46.95C170.5 47.2 172.65 47.2 173.75 47.2C174.55 47.2 175.05 47 175.6 46.35C176.8 44.85 177.3 37.7 177.7 18.7V17.4ZM166.85 7.45H172.75C172.7 26.9 172.5 43.65 162.6 53.45C161.6 51.95 159.65 49.85 158.1 48.85C167.1 40.25 166.8 25.4 166.85 7.45ZM140 10.4H159.7V15.7H140V10.4ZM138.35 22.05H160.55V27.45H138.35V22.05ZM152.75 32L157.55 30.65C159.4 34.85 161.5 40.45 162.3 43.9L157.1 45.55C156.4 42.1 154.5 36.35 152.75 32ZM140.55 48.05L139.95 43L142.5 41.1L158.65 37.3C158.8 38.9 159.2 41.15 159.5 42.4C144.4 46.3 142.05 47.1 140.55 48.05ZM140.5 48.05C140.2 46.9 139.25 44.15 138.6 42.7C139.55 42.35 140.25 41.2 141.1 39.35C141.85 37.6 144.15 30.65 145.2 24.35L151.1 26.05C149.6 32.6 146.9 39.85 144.4 44.85V44.95C144.4 44.95 140.5 46.95 140.5 48.05ZM190.35 15.25H231.7V40.35H225.4V21.15H196.4V40.6H190.35V15.25ZM193.5 31.9H228.9V37.8H193.5V31.9ZM207.7 6.55H214.05V53.5H207.7V6.55Z" fill="#278DFF"/>
</svg>
