<svg width="236" height="75" viewBox="0 0 236 75" fill="none" xmlns="http://www.w3.org/2000/svg">
<path d="M48 34.5188V34.4835C48 32.9762 46.7674 31.7507 45.2671 31.7507C43.7598 31.7507 42.5624 32.9762 42.5624 34.4835C42.5624 42.5483 36.0401 49.0988 28.0035 49.0988C19.9669 49.0988 13.4446 42.5483 13.4446 34.4835C13.4446 32.9762 12.2472 31.7507 10.7399 31.7507C9.23261 31.7507 8 32.9762 8 34.4835V34.5188C8 44.6755 15.5084 53.0431 25.2636 54.3673V60.9812H16.1845C14.6772 60.9812 13.4446 62.2067 13.4446 63.714C13.4446 65.2284 14.6702 66.4539 16.1845 66.4539H39.8155C41.3298 66.4469 42.5554 65.2284 42.5554 63.714C42.5554 62.2067 41.3228 60.9812 39.8155 60.9812H30.7434V54.3673C40.4987 53.0431 48 44.6755 48 34.5188ZM28.0035 44.5205C34.0328 44.5205 38.928 39.6253 38.928 33.5679V18.9526C38.928 12.9164 34.0398 8 28.0035 8C21.9743 8 17.0861 12.9234 17.0861 18.9526V33.5679C17.0861 39.6253 21.9743 44.5205 28.0035 44.5205Z" fill="#278DFF"/>
<rect x="7.19922" y="8.00317" width="5.04829" height="64.4299" rx="2.52415" transform="rotate(-39.3831 7.19922 8.00317)" fill="#278DFF"/>
<path d="M92.5 25.8769H98.7V49.2769C98.7 52.3769 99.55 52.8769 105.1 52.8769C107.7 52.8769 118.65 52.8769 121.6 52.8769C126.75 52.8769 127.55 51.5769 128.25 44.2269C129.8 45.2269 132.6 46.2769 134.35 46.5769C133.2 56.0769 131 58.8269 121.85 58.8269C119.4 58.8269 107.4 58.8269 105.15 58.8269C95.45 58.8269 92.5 56.9269 92.5 49.2769V25.8769ZM96.1 32.6769H123.75V38.6269H96.1V32.6769ZM90.5 16.0769H127.75V40.9269H121.5V22.0269H90.5V16.0769ZM147.95 29.6769H174.95V35.3269H147.95V29.6769ZM163.05 23.1769H169.25V49.5769C169.25 52.6269 168.65 54.1769 166.55 55.0269C164.5 55.9769 161.55 56.0769 157.55 56.0769C157.3 54.4269 156.45 51.9269 155.6 50.2769C158.2 50.4269 161.05 50.4269 161.9 50.4269C162.75 50.3769 163.05 50.1769 163.05 49.4269V23.1769ZM139.3 25.3269H145.3V60.1769H139.3V25.3269ZM140.05 16.3269L144.75 13.3769C147.15 15.6269 150 18.7769 151.25 21.0769L146.25 24.3769C145.15 22.1269 142.4 18.7769 140.05 16.3269ZM153.3 15.6269H180.35V21.1769H153.3V15.6269ZM177 15.6269H182.9V53.7769C182.9 56.6769 182.3 58.1269 180.55 59.0269C178.75 59.9769 176.2 60.0769 172.55 60.0269C172.3 58.5269 171.5 56.0769 170.75 54.6769C172.8 54.7269 175.3 54.7269 176 54.7269C176.75 54.6769 177 54.4769 177 53.7269V15.6269ZM161.35 32.3269L166.75 34.2269C162.95 41.2769 156.85 47.1769 149.75 51.1269C148.9 49.8769 146.9 47.6769 145.65 46.6769C152.3 43.3769 158.25 37.8769 161.35 32.3269ZM203 41.9269C208.35 49.6269 219.7 53.6269 234.75 54.6769C233.55 56.0269 232 58.5769 231.25 60.1769C215.55 58.5769 204.55 53.6769 197.85 43.8269L203 41.9269ZM221 39.1769H222.2L223.25 38.9269L227.3 41.2269C220.75 53.0769 206.4 58.1769 191 60.3269C190.55 58.7769 189.4 56.3769 188.45 55.0769C202.6 53.5769 216.05 49.0269 221 40.0269V39.1769ZM188.2 31.3769H233.75V36.2769H188.2V31.3769ZM190.6 16.7269H231.25V21.6769H190.6V16.7269ZM193.7 24.1269H228.4V28.7269H193.7V24.1269ZM207.8 13.2769H213.75V34.6269H207.8V13.2769ZM203.55 34.6269L210.05 35.9269C205.85 41.4269 200.3 45.9269 192.35 49.5769C191.45 48.1269 189.55 46.1269 188.15 45.1769C195.65 42.4269 200.75 38.4769 203.55 34.6269ZM202.75 39.1769H222.2V44.0269H198.45L202.75 39.1769Z" fill="#278DFF"/>
</svg>
