<svg width="286" height="61" viewBox="0 0 286 61" fill="none" xmlns="http://www.w3.org/2000/svg">
<path d="M17.2336 21.5155L7.78711 30.5875L17.4226 39.663C18.6407 38.4807 19.6057 37.0631 20.2589 35.4963C20.9121 33.9294 21.2398 32.2461 21.2221 30.5487C21.2044 28.8513 20.8417 27.1752 20.1561 25.6223C19.4704 24.0694 18.4761 22.6721 17.2336 21.5155Z" fill="#278DFF"/>
<path d="M26.8656 12.622L22.1406 17.06C30.0751 24.5535 30.0751 36.6075 22.1406 44.101L26.8656 48.546C37.4426 38.606 37.4426 22.5585 26.8656 12.615V12.622Z" fill="#278DFF"/>
<path d="M36.3129 3.54647L31.5879 7.99147C44.8109 20.4585 44.8109 40.5415 31.5879 53.0085L36.3129 57.45C52.1784 42.68 52.1784 18.488 36.3129 3.54297V3.54647Z" fill="#278DFF"/>
<path d="M89.9 9.8H132.45V15.65H89.9V9.8ZM112.25 26.65H129.9V32.55H112.25V26.65ZM88.2 45.75H133.9V51.6H88.2V45.75ZM109.3 12.15H115.7V48.6H109.3V12.15ZM94.35 23.4H100.6V48.9H94.35V23.4ZM138.75 13.5H183.35V19.25H138.75V13.5ZM155.05 29.7H181.25V35.25H155.05V29.7ZM153.1 46.7H183.15V52.25H153.1V46.7ZM165.25 21.4H171.3V49.65H165.25V21.4ZM154.5 6.5L160.75 8C157.05 20.05 150.75 32.2 140.05 39.5C139.45 37.8 138.05 35.15 137.15 33.7C146.2 27.8 151.9 16.6 154.5 6.5ZM144.5 27.45H150.55V53.4H144.5V27.45ZM193.95 52.7C193.45 51.2 191.85 48.5 190.85 47.2C191.95 46.45 193.5 44.55 193.5 42.25V21.9H199.25V46.9C199.25 46.9 193.95 50.5 193.95 52.7ZM190 10.3L194.05 6.9C196.65 9.35 200.1 12.8 201.7 15.1L197.35 19C195.9 16.65 192.55 12.95 190 10.3ZM193.95 52.7L192.45 46.95L193.55 45L202.55 37.8C203 39.45 204.05 41.85 204.75 43.05C196.35 50.05 194.75 51.5 193.95 52.7ZM187.65 21.9H197.75V27.75H187.65V21.9ZM203.85 15.95H233.55V21.9H203.85V15.95ZM202.9 31.2H234.3V37.2H202.9V31.2ZM222.4 6.45H228.5V53.4H222.4V6.45ZM210.05 6.6H216.05V30.05C216.05 38.9 214.85 48.1 207.75 53.25C206.8 52.15 204.55 50.25 203.15 49.4C209.25 44.85 210.05 36.85 210.05 30V6.6ZM278.4 6.75L282.4 11.6C274.85 13.65 264.55 14.9 255.8 15.5C255.55 14.1 254.8 11.85 254.2 10.55C262.8 9.85 272.4 8.5 278.4 6.75ZM253.65 21.6H284.35V27.25H253.65V21.6ZM256.6 34.2H282.1V53.3H275.8V39.65H262.6V53.5H256.6V34.2ZM259.75 46.3H278.55V51.7H259.75V46.3ZM266.05 11.75H272.1V37H266.05V11.75ZM239.85 11L243.7 7.35C246.35 9.55 249.95 12.7 251.7 14.8L247.6 19C246.05 16.8 242.5 13.4 239.85 11ZM244 52.65L242.6 47.15L243.6 45.3L253.35 36.95C253.9 38.55 255 40.95 255.7 42.05C246.6 49.95 244.9 51.4 244 52.65ZM237.7 21.95H246.75V27.7H237.7V21.95ZM244 52.65C243.45 51.35 241.7 49 240.7 47.95C241.85 47.05 243.55 44.9 243.55 42.35V21.95H249.2V46.25C249.2 46.25 244 50.5 244 52.65Z" fill="#278DFF"/>
</svg>
