<svg width="286" height="61" viewBox="0 0 286 61" fill="none" xmlns="http://www.w3.org/2000/svg">
<g clip-path="url(#clip0_567_196)">
<path d="M27.9993 41.7C29.4845 41.7 30.9089 42.29 31.9591 43.3402C33.0093 44.3904 33.5993 45.8148 33.5993 47.3V52.9C33.5993 54.3852 33.0093 55.8096 31.9591 56.8598C30.9089 57.91 29.4845 58.5 27.9993 58.5C26.5141 58.5 25.0897 57.91 24.0395 56.8598C22.9893 55.8096 22.3993 54.3852 22.3993 52.9V47.3C22.3993 45.8148 22.9893 44.3904 24.0395 43.3402C25.0897 42.29 26.5141 41.7 27.9993 41.7ZM45.3481 34.0504L50.1977 36.8504C50.8397 37.2154 51.4032 37.7038 51.8557 38.2875C52.3082 38.8712 52.6408 39.5386 52.8343 40.2513C53.0278 40.9641 53.0784 41.708 52.9832 42.4404C52.888 43.1728 52.6489 43.8791 52.2796 44.5186C51.9103 45.1582 51.4182 45.7184 50.8315 46.167C50.2449 46.6157 49.5753 46.9438 48.8613 47.1326C48.1473 47.3213 47.403 47.367 46.6713 47.2669C45.9395 47.1669 45.2348 46.9231 44.5977 46.5496L39.7481 43.7496C38.4724 43.0017 37.5443 41.7796 37.1663 40.3499C36.7883 38.9203 36.9912 37.3992 37.7306 36.1185C38.47 34.8379 39.6859 33.9017 41.113 33.5142C42.5402 33.1268 44.0626 33.3195 45.3481 34.0504ZM18.3001 36.1C19.0427 37.3862 19.2439 38.9147 18.8596 40.3493C18.4752 41.7838 17.5367 43.007 16.2505 43.7496L11.4009 46.5496C10.7638 46.9231 10.0591 47.1669 9.32738 47.2669C8.59566 47.367 7.85138 47.3213 7.13738 47.1326C6.42339 46.9438 5.75378 46.6157 5.16712 46.167C4.58045 45.7184 4.08832 45.1582 3.71904 44.5186C3.34977 43.8791 3.11066 43.1728 3.01546 42.4404C2.92027 41.708 2.97088 40.9641 3.16438 40.2513C3.35788 39.5386 3.69045 38.8712 4.14294 38.2875C4.59543 37.7038 5.1589 37.2154 5.80092 36.8504L10.6505 34.0504C11.9367 33.3078 13.4652 33.1066 14.8998 33.491C16.3344 33.8753 17.5575 34.8138 18.3001 36.1ZM11.4009 14.4504L16.2505 17.2504C17.5262 17.9983 18.4544 19.2204 18.8323 20.6501C19.2103 22.0797 19.0075 23.6008 18.2681 24.8815C17.5287 26.1621 16.3127 27.0983 14.8856 27.4858C13.4585 27.8732 11.936 27.6805 10.6505 26.9496L5.80092 24.1496C5.1589 23.7846 4.59543 23.2962 4.14294 22.7125C3.69045 22.1288 3.35788 21.4614 3.16438 20.7487C2.97088 20.0359 2.92027 19.292 3.01546 18.5596C3.11066 17.8273 3.34977 17.1209 3.71904 16.4814C4.08832 15.8418 4.58045 15.2816 5.16712 14.833C5.75378 14.3843 6.42339 14.0562 7.13738 13.8674C7.85138 13.6787 8.59566 13.633 9.32738 13.7331C10.0591 13.8331 10.7638 14.0769 11.4009 14.4504ZM52.2473 16.5C52.6149 17.1369 52.8535 17.8401 52.9494 18.5692C53.0453 19.2984 52.9966 20.0393 52.8062 20.7496C52.6157 21.4599 52.2872 22.1258 51.8394 22.7092C51.3916 23.2925 50.8333 23.782 50.1963 24.1496L45.3467 26.9496C44.0612 27.6805 42.5388 27.8732 41.1116 27.4858C39.6845 27.0983 38.4686 26.1621 37.7292 24.8815C36.9898 23.6008 36.7869 22.0797 37.1649 20.6501C37.5429 19.2204 38.471 17.9983 39.7467 17.2504L44.5963 14.4504C45.2333 14.0823 45.9366 13.8433 46.666 13.7471C47.3953 13.6508 48.1365 13.6993 48.8472 13.8896C49.5578 14.08 50.224 14.4085 50.8077 14.8564C51.3913 15.3043 51.881 15.8628 52.2487 16.5H52.2473ZM27.9993 2.5C29.4845 2.5 30.9089 3.09 31.9591 4.1402C33.0093 5.19041 33.5993 6.61479 33.5993 8.1V13.7C33.5993 15.1852 33.0093 16.6096 31.9591 17.6598C30.9089 18.71 29.4845 19.3 27.9993 19.3C26.5141 19.3 25.0897 18.71 24.0395 17.6598C22.9893 16.6096 22.3993 15.1852 22.3993 13.7V8.1C22.3993 6.61479 22.9893 5.19041 24.0395 4.1402C25.0897 3.09 26.5141 2.5 27.9993 2.5Z" fill="#278DFF"/>
</g>
<path d="M107.8 18.5H114V31.85H107.8V18.5ZM93.2 20.9H129.25V25.85H93.2V20.9ZM88.15 28.7H133.9V33.8H88.15V28.7ZM90 36.75H132.4V41.85H90V36.75ZM117.7 33.1H123.9V47.3C123.9 50.2 123.25 51.7 121.1 52.6C119 53.4 116.15 53.5 112.4 53.5C112.1 51.8 111.1 49.4 110.25 47.9C112.8 48 115.75 48 116.6 47.95C117.45 47.95 117.7 47.8 117.7 47.15V33.1ZM94.5 10.15H110.45V15.05H94.5V10.15ZM114.35 10.15H133.6V15.05H114.35V10.15ZM94.9 6.15L100.6 7.7C98.5 12.65 95.1 17.65 91.85 20.8C90.7 19.8 88.25 18.2 86.85 17.45C90.15 14.7 93.15 10.4 94.9 6.15ZM115.1 6.15L120.85 7.55C119.05 12.4 115.95 17.15 112.85 20.1C111.7 19.1 109.25 17.5 107.9 16.75C111 14.25 113.7 10.2 115.1 6.15ZM96.4 13.95L101.25 12.05C102.5 13.95 103.95 16.5 104.5 18.2L99.35 20.3C98.9 18.65 97.6 15.95 96.4 13.95ZM118.2 14.05L123.05 12.1C124.55 13.95 126.4 16.5 127.2 18.25L122.1 20.35C121.4 18.7 119.7 16 118.2 14.05ZM96.65 43.9L101 40.5C103.85 42.5 107.3 45.45 108.85 47.7L104.2 51.45C102.8 49.15 99.5 46.05 96.65 43.9ZM155.15 12.25H182.2V17.65H155.15V12.25ZM152.85 31.45H184.15V36.9H152.85V31.45ZM152.35 22.05H184.55V27.5H152.35V22.05ZM165.4 6.75H171.4V24.85H165.4V6.75ZM172.25 26.55H178.25V47.2C178.25 50.15 177.7 51.65 175.7 52.55C173.65 53.45 170.9 53.5 167.1 53.5C166.85 51.85 166 49.45 165.25 47.85C167.7 48 170.45 48 171.25 47.95C172 47.95 172.25 47.75 172.25 47.1V26.55ZM155.6 39.75L160.55 37.2C162.75 39.75 165.35 43.3 166.4 45.75L161.15 48.6C160.25 46.2 157.8 42.45 155.6 39.75ZM148.95 17.6L154.15 19.8C150.6 25.95 144.85 32.55 139.7 36.7C139.3 35.35 137.8 31.95 136.9 30.5C141.25 27.4 146.1 22.45 148.95 17.6ZM147.75 6.6L153.3 8.9C150.05 13.55 145 18.45 140.35 21.5C139.75 20.15 138.3 17.7 137.45 16.45C141.25 14.05 145.65 9.95 147.75 6.6ZM144.25 28.75L149.75 23.2L150 23.35V53.5H144.25V28.75ZM189.2 12.5H205.6V18.2H189.2V12.5ZM203.65 12.5H204.65L205.7 12.3L209.6 13.4C207.7 32.65 201.85 45.75 191.8 53.4C190.85 51.9 189 49.6 187.6 48.5C196.4 42.6 202.05 29.5 203.65 13.85V12.5ZM189.2 26.9L193.3 23.05C200.1 28.8 208.25 36.8 211.65 42.75L206.95 47.25C203.8 41.4 196 32.9 189.2 26.9ZM210.3 17.7H234.3V23.45H210.3V17.7ZM223 6.55H228.95V46.05C228.95 49.45 228.3 51.15 226.4 52.2C224.5 53.25 221.55 53.45 217.35 53.45C217.15 51.7 216.3 48.85 215.45 47C218.25 47.15 220.95 47.15 221.85 47.15C222.7 47.1 223 46.85 223 46V6.55ZM209.9 29.75L214.75 27.4C217.1 30.7 219.5 35.05 220.3 38.05L215.1 40.7C214.35 37.75 212.2 33.15 209.9 29.75ZM278.4 6.75L282.4 11.6C274.85 13.65 264.55 14.9 255.8 15.5C255.55 14.1 254.8 11.85 254.2 10.55C262.8 9.85 272.4 8.5 278.4 6.75ZM253.65 21.6H284.35V27.25H253.65V21.6ZM256.6 34.2H282.1V53.3H275.8V39.65H262.6V53.5H256.6V34.2ZM259.75 46.3H278.55V51.7H259.75V46.3ZM266.05 11.75H272.1V37H266.05V11.75ZM239.85 11L243.7 7.35C246.35 9.55 249.95 12.7 251.7 14.8L247.6 19C246.05 16.8 242.5 13.4 239.85 11ZM244 52.65L242.6 47.15L243.6 45.3L253.35 36.95C253.9 38.55 255 40.95 255.7 42.05C246.6 49.95 244.9 51.4 244 52.65ZM237.7 21.95H246.75V27.7H237.7V21.95ZM244 52.65C243.45 51.35 241.7 49 240.7 47.95C241.85 47.05 243.55 44.9 243.55 42.35V21.95H249.2V46.25C249.2 46.25 244 50.5 244 52.65Z" fill="#278DFF"/>
<defs>
<clipPath id="clip0_567_196">
<rect width="56" height="56" fill="white" transform="translate(0 2.5)"/>
</clipPath>
</defs>
</svg>
