<svg width="286" height="75" viewBox="0 0 286 75" fill="none" xmlns="http://www.w3.org/2000/svg">
<path d="M48 34.5168V34.4816C48 32.9743 46.7674 31.7487 45.2671 31.7487C43.7598 31.7487 42.5624 32.9743 42.5624 34.4816C42.5624 42.5464 36.0401 49.0968 28.0035 49.0968C19.9669 49.0968 13.4446 42.5464 13.4446 34.4816C13.4446 32.9743 12.2472 31.7487 10.7399 31.7487C9.23261 31.7487 8 32.9743 8 34.4816V34.5168C8 44.6735 15.5084 53.0412 25.2636 54.3654V60.9792H16.1845C14.6772 60.9792 13.4446 62.2048 13.4446 63.7121C13.4446 65.2264 14.6702 66.452 16.1845 66.452H39.8155C41.3298 66.445 42.5554 65.2264 42.5554 63.7121C42.5554 62.2048 41.3228 60.9792 39.8155 60.9792H30.7434V54.3654C40.4987 53.0412 48 44.6735 48 34.5168ZM28.0035 44.5186C34.0328 44.5186 38.928 39.6233 38.928 33.5659V18.9507C38.928 12.9144 34.0398 7.99805 28.0035 7.99805C21.9743 7.99805 17.0861 12.9214 17.0861 18.9507V33.5659C17.0861 39.6233 21.9743 44.5186 28.0035 44.5186Z" fill="#278DFF"/>
<path d="M89.9 23.2499H132.45V29.0999H89.9V23.2499ZM112.25 40.0999H129.9V45.9999H112.25V40.0999ZM88.2 59.2H133.9V65.05H88.2V59.2ZM109.3 25.5999H115.7V62.05H109.3V25.5999ZM94.35 36.8499H100.6V62.35H94.35V36.8499ZM138.75 26.9499H183.35V32.6999H138.75V26.9499ZM155.05 43.15H181.25V48.7H155.05V43.15ZM153.1 60.15H183.15V65.7H153.1V60.15ZM165.25 34.8499H171.3V63.1H165.25V34.8499ZM154.5 19.9499L160.75 21.4499C157.05 33.4999 150.75 45.6499 140.05 52.95C139.45 51.25 138.05 48.6 137.15 47.1499C146.2 41.2499 151.9 30.05 154.5 19.9499ZM144.5 40.8999H150.55V66.85H144.5V40.8999ZM188.15 21.9499H210.05V27.3999H188.15V21.9499ZM193.85 32.4999H204.8V37.45H193.85V32.4999ZM193.85 42.7H204.8V47.6H193.85V42.7ZM191.15 24.75H196.55V56.1H191.15V24.75ZM201.45 24.6999H207V66.95H201.45V24.6999ZM187.25 54.85C191.7 54.3 198.2 53.35 204.45 52.4L204.8 57.75C199.1 58.75 193.05 59.75 188.3 60.55L187.25 54.85ZM213.7 34.1499H227.6V39.1H213.7V34.1499ZM208.55 43.3H229.4V48.5499H208.55V43.3ZM215.1 45.15H220.9V66.9H215.1V45.15ZM220.6 25.7999C218.3 30.1 214.05 35.45 209.45 38.6999C208.8 37.0999 207.5 34.8499 206.5 33.55C211.15 30.4999 215.55 24.5999 217.65 19.9999H223.15C226.05 25.0999 230.5 30.4999 235.05 33.05C233.95 34.5499 232.7 36.75 231.85 38.55C227.5 35.5499 223.05 30.1499 220.6 25.7999ZM226.7 43.3H232.2V56.5C232.2 58.85 231.85 60.35 230.3 61.15C228.75 62 226.75 62.1 223.95 62.1C223.8 60.55 223.1 58.35 222.4 56.95C223.9 57 225.55 57 226.05 57C226.55 57 226.7 56.85 226.7 56.35V43.3ZM277.25 20.4499L282.8 25.0499C276.75 27.8499 268.75 29.9499 261.75 31.2999C261.4 29.9 260.45 27.5999 259.65 26.2999C266.1 24.9499 273.1 22.7 277.25 20.4499ZM258.2 24.6499L265.6 26.3499C265.55 26.85 265.2 27.1 264.25 27.3V40.7999C264.25 48.4 263.1 59.55 254.95 66.5C254.2 65.1 252.05 62.85 250.65 62C257.5 56.05 258.2 47.6 258.2 40.75V24.6499ZM261.75 37.3H284.5V43.0999H261.75V37.3ZM271.45 39.7499H277.5V66.95H271.45V39.7499ZM242.6 24.4999H255.3V53.2H242.6V47.65H249.55V29.9999H242.6V24.4999ZM239.25 24.4999H244.9V57.3H239.25V24.4999Z" fill="#278DFF"/>
</svg>
