<svg width="60" height="58" viewBox="0 0 60 58" fill="none" xmlns="http://www.w3.org/2000/svg">
<path d="M31.6334 38.1909C28.5195 38.7052 25.35 37.7113 23.1189 35.5288C20.8877 33.3463 19.8798 30.2324 20.4081 27.188C21.0615 23.24 24.3144 20.0497 28.3457 19.3963C31.4666 18.868 34.65 19.862 36.8881 22.0515C39.1262 24.2479 40.1341 27.3687 39.5919 30.42C38.9177 34.375 35.6648 37.5514 31.6334 38.1909ZM54.4663 32.0465L59.0537 29.2384C59.7836 28.7936 60.138 27.9456 59.9504 27.1254L57.7053 17.471C57.5177 16.6508 56.8156 16.0391 55.9607 15.9488L50.5739 15.3649C50.0387 15.3093 49.5522 15.0452 49.2186 14.6351L48.315 13.523C47.9813 13.1129 47.8284 12.5847 47.891 12.0634L48.5096 6.80171C48.6069 5.96763 48.1551 5.16135 47.3836 4.79297L38.2782 0.497461C37.5067 0.136027 36.5823 0.288941 35.9706 0.879747L32.1478 4.6331C31.7724 5.00149 31.2581 5.21696 30.7159 5.21696H29.2771C28.7419 5.21696 28.2276 5.00844 27.8453 4.6331L24.0224 0.879747C23.4177 0.281991 22.4933 0.129076 21.7148 0.497461L12.6164 4.79297C11.8449 5.16135 11.3931 5.96068 11.4904 6.80171L12.109 12.0703C12.1716 12.5916 12.0187 13.1129 11.685 13.5299L10.7884 14.6281C10.4548 15.0382 9.96821 15.3024 9.43301 15.358L4.04625 15.9488C3.19132 16.0391 2.49625 16.6508 2.30164 17.471L0.0496228 27.1185C-0.138045 27.9387 0.216439 28.7866 0.946258 29.2315L5.53369 32.0465C5.98548 32.3245 6.31216 32.7694 6.43033 33.2837L6.75005 34.6669C6.86822 35.1812 6.77786 35.7164 6.49288 36.1613L3.60141 40.6445C3.14266 41.3534 3.19827 42.2709 3.73347 42.9312L10.0377 50.6673C10.5729 51.3276 11.4765 51.5778 12.2828 51.2998L17.3915 49.5413C17.8989 49.3675 18.455 49.3953 18.9346 49.6247L20.2343 50.2364C20.7209 50.4657 21.0893 50.8689 21.263 51.3693L23.0424 56.3738C23.3274 57.1662 24.0919 57.7014 24.9469 57.7014H35.0462C35.9081 57.7014 36.6726 57.1662 36.9507 56.3738L38.73 51.3693C38.9038 50.8758 39.2791 50.4657 39.7587 50.2364L41.0585 49.6247C41.5381 49.3953 42.0941 49.3675 42.6015 49.5413L47.7103 51.2998C48.5235 51.5778 49.4201 51.3276 49.9553 50.6673L56.2596 42.9312C56.7948 42.2709 56.8434 41.3534 56.3916 40.6445L53.5002 36.1613C53.2152 35.7164 53.1179 35.1812 53.236 34.6669L53.5558 33.2907C53.6878 32.7694 54.0076 32.3245 54.4663 32.0465Z" fill="white"/>
</svg>
