<svg width="120" height="120" viewBox="0 0 120 120" fill="none" xmlns="http://www.w3.org/2000/svg">
<rect width="120" height="120" rx="60" fill="black" fill-opacity="0.2"/>
<path d="M76.6343 61.67C73.7104 63.6371 70.2159 64.7841 66.46 64.7841C62.71 64.7841 59.2274 63.649 56.3154 61.6937C48.4291 65.5448 42.9853 73.7401 42.9853 83.225C42.9853 93.2627 90 93.12 90 83.225C89.9941 73.7163 84.5384 65.5151 76.6343 61.67ZM50.6577 46.0578C50.6577 37.191 57.7298 30 66.46 30C75.1902 30 82.2623 37.191 82.2623 46.0578C82.2623 54.9247 75.1902 62.1097 66.46 62.1097C57.7298 62.1097 50.6577 54.9247 50.6577 46.0578ZM40.1981 84.057C40.1981 84.4255 40.2516 84.7761 40.3645 85.1208C34.4275 84.1521 30 82.2504 30 79.3859C30 71.1787 34.7068 64.0887 41.5353 60.7488C43.9184 62.3475 46.7532 63.3162 49.8078 63.4172C43.9422 68.3201 40.1981 75.7488 40.1981 84.057ZM48.025 46.0578C48.025 41.981 49.3086 38.2072 51.4838 35.1347C51.1034 35.099 50.7231 35.0872 50.3427 35.0872C43.1577 35.0872 37.3336 41.0063 37.3336 48.3043C37.3336 55.6022 43.1517 61.5214 50.3368 61.5214C51.9532 61.5214 53.5044 61.2242 54.9247 60.6716C50.7231 57.2365 48.025 51.9711 48.025 46.0578Z" fill="white"/>
</svg>
