<svg width="120" height="120" viewBox="0 0 120 120" fill="none" xmlns="http://www.w3.org/2000/svg">
<rect width="120" height="120" rx="60" fill="black" fill-opacity="0.2"/>
<path fill-rule="evenodd" clip-rule="evenodd" d="M67.2766 37.1864H52.8694C51.0137 37.1004 49.5876 35.4596 49.6563 33.5781C49.5876 31.6709 50.988 30.0558 52.8265 29.9441H67.1392C68.0326 29.987 68.8746 30.3822 69.4759 31.0523C70.0773 31.7396 70.3866 32.6331 70.3436 33.5437C70.4467 35.4252 69.0893 37.0317 67.2766 37.1864ZM83.3333 34.085H76.3832C76.9244 35.6829 76.6924 37.4527 75.7474 38.853C74.811 40.2448 73.2904 41.0781 71.6667 41.0781H48.3333C46.7096 41.0781 45.189 40.2448 44.2526 38.853C43.3162 37.4441 43.0842 35.6829 43.6254 34.0764H36.6667C32.9811 34.0764 30 37.2122 30 41.0781V83.0541C30 86.9201 32.9811 90.0558 36.6667 90.0558H83.3333C87.0189 90.0558 90 86.9201 90 83.0541V41.0867C90 37.2207 87.0189 34.085 83.3333 34.085ZM46.4347 66.8256H73.4966C74.7079 66.8427 75.8076 67.5128 76.3746 68.5781C77.0189 69.652 77.0189 70.9836 76.4347 72.0919C75.8505 73.1658 74.7337 73.8445 73.5567 73.8445H46.4691C44.6134 73.8445 43.1271 72.2809 43.1271 70.3307C43.1271 69.7122 43.2818 69.1022 43.5567 68.5781C44.1409 67.5042 45.2577 66.8256 46.4347 66.8256ZM46.3574 52.7792H59.3299H73.6512C74.8368 52.7963 75.9192 53.475 76.4519 54.5317C77.0189 55.6056 77.0189 56.9372 76.4519 58.0455C75.8763 59.1194 74.7938 59.8067 73.6512 59.8067H46.3574C45.1804 59.8067 44.1237 59.1194 43.5567 58.0455C42.9897 56.9716 42.9897 55.64 43.5567 54.5317C44.1323 53.4579 45.2148 52.7792 46.3574 52.7792Z" fill="white"/>
</svg>
