<svg width="120" height="120" viewBox="0 0 120 120" fill="none" xmlns="http://www.w3.org/2000/svg">
<rect width="120" height="120" rx="60" fill="black" fill-opacity="0.2"/>
<path d="M61.6334 69.1909C58.5195 69.7052 55.35 68.7113 53.1189 66.5288C50.8877 64.3463 49.8798 61.2324 50.4081 58.188C51.0615 54.24 54.3144 51.0497 58.3457 50.3963C61.4666 49.868 64.65 50.862 66.8881 53.0515C69.1262 55.2479 70.1341 58.3687 69.5919 61.42C68.9177 65.375 65.6648 68.5514 61.6334 69.1909ZM84.4663 63.0465L89.0537 60.2384C89.7836 59.7936 90.138 58.9456 89.9504 58.1254L87.7053 48.471C87.5177 47.6508 86.8156 47.0391 85.9607 46.9488L80.5739 46.3649C80.0387 46.3093 79.5522 46.0452 79.2186 45.6351L78.315 44.523C77.9813 44.1129 77.8284 43.5847 77.891 43.0634L78.5096 37.8017C78.6069 36.9676 78.1551 36.1614 77.3836 35.793L68.2782 31.4975C67.5067 31.136 66.5823 31.2889 65.9706 31.8797L62.1478 35.6331C61.7724 36.0015 61.2581 36.217 60.7159 36.217H59.2771C58.7419 36.217 58.2276 36.0084 57.8453 35.6331L54.0224 31.8797C53.4177 31.282 52.4933 31.1291 51.7148 31.4975L42.6164 35.793C41.8449 36.1614 41.3931 36.9607 41.4904 37.8017L42.109 43.0703C42.1716 43.5916 42.0187 44.1129 41.685 44.5299L40.7884 45.6281C40.4548 46.0382 39.9682 46.3024 39.433 46.358L34.0462 46.9488C33.1913 47.0391 32.4963 47.6508 32.3016 48.471L30.0496 58.1185C29.862 58.9387 30.2164 59.7866 30.9463 60.2315L35.5337 63.0465C35.9855 63.3245 36.3122 63.7694 36.4303 64.2837L36.7501 65.6669C36.8682 66.1812 36.7779 66.7164 36.4929 67.1613L33.6014 71.6445C33.1427 72.3534 33.1983 73.2709 33.7335 73.9312L40.0377 81.6673C40.5729 82.3276 41.4765 82.5778 42.2828 82.2998L47.3915 80.5413C47.8989 80.3675 48.455 80.3953 48.9346 80.6247L50.2343 81.2364C50.7209 81.4657 51.0893 81.8689 51.263 82.3693L53.0424 87.3738C53.3274 88.1662 54.0919 88.7014 54.9469 88.7014H65.0462C65.9081 88.7014 66.6726 88.1662 66.9507 87.3738L68.73 82.3693C68.9038 81.8758 69.2791 81.4657 69.7587 81.2364L71.0585 80.6247C71.5381 80.3953 72.0941 80.3675 72.6015 80.5413L77.7103 82.2998C78.5235 82.5778 79.4201 82.3276 79.9553 81.6673L86.2596 73.9312C86.7948 73.2709 86.8434 72.3534 86.3916 71.6445L83.5002 67.1613C83.2152 66.7164 83.1179 66.1812 83.236 65.6669L83.5558 64.2907C83.6878 63.7694 84.0076 63.3245 84.4663 63.0465Z" fill="white"/>
</svg>
