<svg width="120" height="120" viewBox="0 0 120 120" fill="none" xmlns="http://www.w3.org/2000/svg">
<g filter="url(#filter0_i_49_818)">
<rect width="120" height="120" rx="60" fill="black" fill-opacity="0.2"/>
<path d="M61.6334 69.191C58.5195 69.7053 55.35 68.7114 53.1189 66.5289C50.8877 64.3464 49.8798 61.2325 50.4081 58.1881C51.0615 54.2401 54.3144 51.0498 58.3457 50.3964C61.4666 49.8682 64.65 50.8621 66.8881 53.0516C69.1262 55.248 70.1341 58.3688 69.5919 61.4202C68.9177 65.3751 65.6648 68.5515 61.6334 69.191ZM84.4663 63.0466L89.0537 60.2385C89.7836 59.7937 90.138 58.9457 89.9504 58.1256L87.7053 48.4711C87.5177 47.6509 86.8156 47.0393 85.9607 46.9489L80.5739 46.365C80.0387 46.3094 79.5522 46.0453 79.2186 45.6352L78.315 44.5231C77.9814 44.113 77.8284 43.5848 77.891 43.0635L78.5096 37.8018C78.6069 36.9678 78.1551 36.1615 77.3836 35.7931L68.2782 31.4976C67.5067 31.1361 66.5823 31.2891 65.9706 31.8799L62.1478 35.6332C61.7724 36.0016 61.2581 36.2171 60.7159 36.2171H59.2771C58.7419 36.2171 58.2276 36.0086 57.8453 35.6332L54.0224 31.8799C53.4177 31.2821 52.4933 31.1292 51.7148 31.4976L42.6164 35.7931C41.8449 36.1615 41.3931 36.9608 41.4904 37.8018L42.109 43.0704C42.1716 43.5917 42.0187 44.113 41.685 44.5301L40.7884 45.6283C40.4548 46.0384 39.9682 46.3025 39.433 46.3581L34.0462 46.9489C33.1913 47.0393 32.4963 47.6509 32.3016 48.4711L30.0496 58.1186C29.862 58.9388 30.2164 59.7868 30.9463 60.2316L35.5337 63.0466C35.9855 63.3246 36.3122 63.7695 36.4303 64.2838L36.7501 65.667C36.8682 66.1814 36.7779 66.7166 36.4929 67.1614L33.6014 71.6446C33.1427 72.3535 33.1983 73.271 33.7335 73.9313L40.0377 81.6674C40.5729 82.3277 41.4765 82.578 42.2828 82.2999L47.3915 80.5414C47.8989 80.3677 48.455 80.3955 48.9346 80.6248L50.2343 81.2365C50.7209 81.4659 51.0893 81.869 51.263 82.3694L53.0424 87.3739C53.3274 88.1663 54.0919 88.7015 54.9469 88.7015H65.0462C65.9081 88.7015 66.6726 88.1663 66.9507 87.3739L68.73 82.3694C68.9038 81.8759 69.2791 81.4659 69.7587 81.2365L71.0585 80.6248C71.5381 80.3955 72.0941 80.3677 72.6015 80.5414L77.7103 82.2999C78.5235 82.578 79.4201 82.3277 79.9553 81.6674L86.2596 73.9313C86.7948 73.271 86.8434 72.3535 86.3916 71.6446L83.5002 67.1614C83.2152 66.7166 83.1179 66.1814 83.236 65.667L83.5558 64.2908C83.6878 63.7695 84.0076 63.3246 84.4663 63.0466Z" fill="black"/>
</g>
<defs>
<filter id="filter0_i_49_818" x="0" y="0" width="120" height="124" filterUnits="userSpaceOnUse" color-interpolation-filters="sRGB">
<feFlood flood-opacity="0" result="BackgroundImageFix"/>
<feBlend mode="normal" in="SourceGraphic" in2="BackgroundImageFix" result="shape"/>
<feColorMatrix in="SourceAlpha" type="matrix" values="0 0 0 0 0 0 0 0 0 0 0 0 0 0 0 0 0 0 127 0" result="hardAlpha"/>
<feOffset dy="4"/>
<feGaussianBlur stdDeviation="2"/>
<feComposite in2="hardAlpha" operator="arithmetic" k2="-1" k3="1"/>
<feColorMatrix type="matrix" values="0 0 0 0 0 0 0 0 0 0 0 0 0 0 0 0 0 0 0.25 0"/>
<feBlend mode="normal" in2="shape" result="effect1_innerShadow_49_818"/>
</filter>
</defs>
</svg>
