<svg width="120" height="120" viewBox="0 0 120 120" fill="none" xmlns="http://www.w3.org/2000/svg">
<rect width="120" height="120" rx="60" fill="black" fill-opacity="0.2"/>
<path d="M85 56.6147V56.5707C85 54.6866 83.4592 53.1546 81.5839 53.1546C79.6998 53.1546 78.203 54.6866 78.203 56.5707C78.203 66.6517 70.0502 74.8398 60.0044 74.8398C49.9586 74.8398 41.8058 66.6517 41.8058 56.5707C41.8058 54.6866 40.309 53.1546 38.4249 53.1546C36.5408 53.1546 35 54.6866 35 56.5707V56.6147C35 69.3106 44.3855 79.7702 56.5795 81.4255V89.6928H45.2307C43.3465 89.6928 41.8058 91.2247 41.8058 93.1088C41.8058 95.0018 43.3377 96.5337 45.2307 96.5337H74.7693C76.6623 96.5249 78.1942 95.0018 78.1942 93.1088C78.1942 91.2247 76.6535 89.6928 74.7693 89.6928H63.4293V81.4255C75.6234 79.7702 85 69.3106 85 56.6147ZM60.0044 69.117C67.5409 69.117 73.66 62.9979 73.66 55.4262V37.1571C73.66 29.6118 67.5497 23.4663 60.0044 23.4663C52.4679 23.4663 46.3576 29.6206 46.3576 37.1571V55.4262C46.3576 62.9979 52.4679 69.117 60.0044 69.117Z" fill="white"/>
</svg>
